<svg width="98" height="82" viewBox="0 0 98 82" fill="none" xmlns="http://www.w3.org/2000/svg">
<path d="M33.4799 0.938693C45.4216 -0.516111 57.4729 -0.00403473 69.4479 0.637418C71.0305 0.589468 72.6096 0.279146 74.1931 0.457377C75.5494 0.621133 76.7645 1.34673 77.8514 2.15917C80.0411 3.82659 81.8782 5.94365 83.4389 8.23262C85.2856 10.9794 85.6874 14.4626 87.549 17.2048C90.0063 20.7324 93.9251 22.8494 96.2604 26.4828C97.8378 28.8405 98.1045 31.8632 97.8062 34.638C97.5474 37.1306 96.2806 39.3861 94.6462 41.1946C92.4627 43.5849 89.9562 45.7346 88.3262 48.5971C87.2524 50.4808 86.8392 52.6711 85.7865 54.5611C83.2801 58.427 79.6209 61.3149 75.8012 63.6979C70.276 67.1214 64.264 69.5696 58.494 72.4973C55.7841 73.8499 53.1803 75.4296 50.4046 76.641C47.842 77.79 45.0373 78.0886 42.3133 78.5979C39.9438 78.9707 37.6304 79.6329 35.2924 80.1658C29.5584 81.4469 23.6543 82.4421 17.7773 81.7989C13.7611 81.3537 9.6782 79.86 6.85772 76.7704C5.76198 75.4965 4.73994 74.0815 4.16707 72.4738C3.83458 67.5919 4.47939 62.7208 5.097 57.8923C5.68127 53.2438 6.03307 48.4723 5.0584 43.8518C4.11356 40.1922 1.87209 37.079 0.74477 33.489C-0.13866 30.7721 -0.33605 27.7105 0.701783 25.0099C2.38179 21.828 5.72163 19.9751 7.25952 16.6882C8.13593 14.9394 8.30875 12.9363 8.24822 11.0002C10.9968 8.16477 14.4375 6.14089 18.0353 4.68156C22.9788 2.67577 28.2267 1.61272 33.4799 0.938693Z" fill="#0D0D0D"/>
<path d="M27.7776 5.32852C39.9019 3.58752 52.1859 2.83974 64.4306 3.27588C67.3185 3.46128 70.2251 3.28029 73.1031 3.63078C75.5385 3.95391 77.7365 5.32852 79.3151 7.15692C83.0597 11.4644 84.218 17.3698 88.042 21.6234C86.3991 21.7956 84.7588 21.3347 83.1231 21.5537C82.6322 21.5969 82.1985 21.8432 81.805 22.1187C84.293 21.8088 86.8953 21.8998 89.2254 22.9027C92.4122 24.1961 95.0189 26.9144 95.988 30.203C96.735 32.766 96.3307 35.5999 94.9939 37.9051C93.4268 40.6225 90.8638 42.6831 88.017 43.9809C88.1491 44.0418 88.2839 44.1001 88.4186 44.1619C88.9353 43.9694 89.3949 43.6666 89.8536 43.3708C89.9179 43.5015 90.0455 43.7664 90.1097 43.897C89.3762 44.372 88.5748 44.7852 88.0331 45.4906C86.7534 47.0338 86.3536 49.0414 85.6298 50.8557C84.857 52.9622 83.3774 54.7138 81.805 56.2871C78.0176 59.9121 73.3521 62.4459 68.6874 64.7854C65.3516 66.3984 61.9613 67.8993 58.6103 69.4814C55.6743 70.8357 52.9373 72.5643 49.9923 73.8983C49.3391 74.1649 48.6885 74.4854 47.9773 74.5578C46.9724 74.5666 45.9783 74.2797 44.9707 74.3953C43.2073 74.5807 41.5671 75.2897 39.9063 75.8547C36.4661 77.1437 32.8259 77.7811 29.201 78.3002C25.1209 78.8361 20.9721 79.078 16.8777 78.558C13.5329 78.1104 10.0356 77.1543 7.57699 74.7317C6.26782 73.3509 5.18087 71.5269 5.35667 69.567C5.31295 61.6954 7.44224 53.9316 6.78899 46.0468C6.51502 43.6375 6.11968 41.1469 4.82926 39.0404C3.81191 37.2685 2.35907 35.6882 1.86824 33.6656C1.39527 31.2607 1.356 28.6483 2.46705 26.4014C3.8601 23.4862 7.04244 21.8927 8.36053 18.9272C9.07356 17.3884 9.13335 15.6641 9.03251 14.0044C12.487 10.0138 17.3168 7.10218 22.5614 6.14428C26.1418 5.45742 29.765 6.2052 33.356 6.37912C40.573 6.84262 47.6078 4.39004 54.8221 4.73347C58.1418 4.95066 61.3831 5.89796 64.3851 7.29906C67.6978 8.83788 70.6864 10.9514 73.7751 12.8725C74.7639 13.4552 75.7348 14.0926 76.8137 14.5111C73.5689 11.9773 70.2358 9.50002 66.5921 7.54802C62.7654 5.51568 58.489 4.26556 54.1367 4.1349C46.9242 3.90888 39.8653 5.97654 32.6528 5.85029C31.0188 5.7982 29.3696 5.70815 27.7776 5.32852Z" fill="#FCFCFC"/>
<path d="M45.6502 6.69238C51.4441 5.93911 57.4775 6.23522 63.0167 8.09239C66.4011 9.2223 69.5639 10.9595 72.1995 13.2512C73.0541 14.0414 73.958 14.8098 74.601 15.7694C70.0643 11.9577 64.6632 8.9069 58.6639 7.65452C55.0275 6.86015 51.254 6.71419 47.5397 7.02959C44.6422 7.31983 41.8919 8.39353 38.9649 8.49671C33.5934 8.82889 28.2191 8.27777 22.8906 7.66794C22.3669 7.62013 21.8459 7.52618 21.3204 7.54547C20.3976 7.97915 19.6946 8.77101 18.6508 8.98575C19.3439 7.89694 20.5877 7.18477 21.9239 7.0363C24.5873 6.74439 27.1699 7.58406 29.7911 7.84997C35.1107 8.29203 40.4042 7.423 45.6502 6.69238Z" fill="#0D0D0D"/>
<path d="M49.7425 9.70149C54.8218 9.11589 60.1289 9.526 64.857 11.7821C67.0492 12.8829 69.3138 14.6265 69.9379 17.3462C68.3554 14.2399 65.3425 12.4531 62.345 11.4649C57.7649 9.98021 52.9169 9.77188 48.1795 10.0309C48.6829 9.83851 49.2119 9.74466 49.7425 9.70149Z" fill="#0D0D0D"/>
<path d="M22.627 12.0068C26.1509 10.8301 29.9855 10.777 33.5948 11.5707C34.2575 11.7185 34.9941 11.723 35.5688 12.1339C35.9543 12.3456 35.6049 12.7727 35.5257 13.0565C32.3089 11.7482 28.7507 11.2986 25.3289 11.8519C23.2624 12.233 21.1449 13.1186 19.8406 14.8756C19.2747 15.6072 19.0046 16.5019 18.6508 17.3461C18.7185 16.036 19.1938 14.8044 19.7658 13.6484C20.5183 12.8114 21.6 12.3825 22.627 12.0068Z" fill="#0D0D0D"/>
<path d="M48.6207 11.2177C48.9751 10.8276 49.3762 11.1689 49.7333 11.35C48.5573 12.0983 47.6775 13.3491 47.2235 14.7809C47.1582 15.6346 47.2728 16.5132 47.0366 17.3461C46.5103 16.2784 46.6055 15.0028 46.6954 13.8336C47.4421 13.0595 47.8441 11.954 48.6207 11.2177Z" fill="#0D0D0D"/>
<path d="M32.6379 14.4246C32.8609 14.3419 33.0845 14.2663 33.311 14.1926C33.545 14.8212 33.8199 15.4264 34.1939 15.9354C34.1779 17.457 34.2098 18.9787 34.1779 20.5003C33.2382 19.4049 34.1267 17.6684 33.795 16.3131C33.4356 15.6539 32.9121 15.1638 32.6379 14.4246Z" fill="#0D0D0D"/>
<path d="M54.103 16.2085C57.8079 15.4772 61.7883 15.558 65.283 17.2303C67.5116 18.28 69.4329 20.3535 69.9371 23.0072C69.3402 23.5191 68.6559 23.9771 67.8736 23.9973C66.083 24.0858 64.4266 23.14 62.6562 23.0091C57.7514 22.5781 52.9057 24.2609 48.6472 26.8078C47.562 25.6032 45.7264 25.1769 45.1887 23.4479C44.7745 22.3664 45.5365 21.384 46.1105 20.5806C48.1404 18.0703 51.1698 16.8714 54.103 16.2085Z" fill="#0D0D0D"/>
<path d="M49.7679 20.9689C51.4927 19.9671 53.4794 19.5022 55.3875 18.9231C55.1462 19.8928 55.8065 20.7146 55.9503 21.6381C54.638 21.4957 53.3331 21.833 52.2116 22.4701C51.0034 23.1189 49.6498 24.0323 48.1961 23.4876C48.0548 22.3973 48.8374 21.4918 49.7679 20.9689Z" fill="#FCFCFC"/>
<path d="M22.3104 19.2578C25.0738 18.5516 28.001 19.0412 30.6518 19.9967C32.4389 20.7019 34.3052 21.6174 35.3731 23.3392C36.4912 23.0043 37.7554 22.501 38.8549 23.1808C38.8329 23.6349 38.8488 24.1736 38.4808 24.4949C37.6039 25.394 36.139 25.2729 35.3529 26.314C35.3502 27.9447 35.3599 29.5755 35.3458 31.2062C33.9804 32.7769 31.4018 33.0845 30.7557 35.3095C31.8482 37.266 33.1986 39.3718 35.3802 40.1171C36.2588 40.1871 36.8248 39.3508 37.5678 39.0132C37.839 39.1788 38.1093 39.349 38.3778 39.521C37.9517 40.6094 37.4288 41.7806 36.4005 42.3866C35.727 42.7688 34.9312 42.5195 34.3211 42.13C32.1906 40.7513 30.9537 38.3325 28.8462 36.9257C28.4227 37.4034 27.9473 38.0559 27.2466 37.9885C26.8926 37.5081 26.7527 36.9075 26.4983 36.3715C24.5192 36.8792 22.9055 38.9104 20.7328 38.5427C25.5246 36.5626 29.2767 32.8115 33.3245 29.6319C33.3245 28.3806 33.3245 27.1275 33.3245 25.8745C31.4247 24.6996 29.1666 24.4694 27.0071 24.2501C24.2014 23.9571 21.2874 23.9498 18.6508 22.7877C19.0364 20.9613 20.6069 19.67 22.3104 19.2578Z" fill="#0D0D0D"/>
<path d="M65.2758 20.5617C65.7676 20.4072 66.315 20.5224 66.6904 21.1663C66.8565 21.3759 66.8305 21.7608 66.8305 22.0773C66.4756 21.5212 66.0135 21.5429 65.575 21.431C65.3305 21.3884 65.3259 20.8882 65.2758 20.5617Z" fill="#FCFCFC"/>
<path d="M21.7579 20.8464C22.8524 20.9806 23.9365 20.5119 25.0309 20.5024C25.5575 20.4646 26.0462 20.9673 26.4205 21.7611C25.5067 21.7025 24.5973 21.8481 23.6878 22.0371C23.0089 22.1524 22.2294 22.0938 21.7579 20.8464Z" fill="#FCFCFC"/>
<path d="M71.492 20.5341C73.0973 20.247 74.5348 21.9058 76.1543 21.3807C75.886 23.7683 73.5726 24.3028 72.4675 22.8543C73.204 22.685 74.1918 23.1863 74.6556 22.0579C73.5451 21.9296 72.3378 21.7497 71.492 20.5341Z" fill="#0D0D0D"/>
<path d="M10.1242 22.4799C11.6353 22.7385 13.1413 22.3788 14.6306 22.1318C15.5099 21.9618 16.4727 22.1774 17.097 22.8942C14.41 22.5166 11.6052 22.564 9.05276 23.6387C6.91738 24.4861 4.97424 26.1998 4.17859 28.5344C3.45148 30.5917 3.6671 32.8869 4.28975 34.9415C4.43517 35.3719 4.5363 35.8784 4.90821 36.1585C6.18776 37.1938 7.93952 37.2001 9.2149 38.2292C9.60018 38.5012 9.49738 39.0005 9.48234 39.4229C8.89814 39.0193 8.34905 38.5477 7.69799 38.2721C6.47025 37.6994 5.05363 37.4247 4.07412 36.3759C3.13054 34.1514 2.83719 31.5652 3.38044 29.1778C4.06743 26.0807 6.35241 23.5331 9.11043 22.4289C9.43972 22.2991 9.78823 22.4611 10.1242 22.4799Z" fill="#0D0D0D"/>
<path d="M80.8174 22.3456C81.9974 21.9782 83.2596 22.1074 84.482 22.0772C86.7683 22.0596 89.2053 22.5729 90.9311 24.1144C92.4861 25.5427 93.0891 27.6595 93.213 29.6732C93.3239 30.8222 93.1601 31.9687 93.1264 33.1152C92.9981 32.9751 92.8691 32.8359 92.7408 32.6984C92.9245 30.9145 92.876 29.1105 92.688 27.3308C91.936 25.5578 90.5516 23.9382 88.6664 23.2363C86.1696 22.2684 83.4303 22.6265 80.8174 22.3456Z" fill="#0D0D0D"/>
<path d="M71.492 23.856C72.099 23.2303 72.7677 24.1628 73.048 25.2289C72.4434 25.2715 71.909 24.6655 71.492 23.856Z" fill="#0D0D0D"/>
<path d="M77.6931 23.9093C80.6664 23.28 83.9313 23.7968 86.4319 25.6577C88.7002 27.3095 90.2806 30.114 90.1335 33.0536C90.0896 35.5599 88.7307 37.841 86.9351 39.4234C86.2256 37.7979 87.1647 36.1864 87.6831 34.681C88.3513 32.9692 87.9818 31.0173 87.1853 29.4274C86.3996 27.8207 84.8981 26.6801 83.2496 26.2121C81.7822 25.7365 80.2278 25.7993 78.7147 25.895C77.1765 27.4539 75.1216 28.2822 73.0865 28.8562C70.4164 29.5597 67.6108 29.7754 64.885 29.343C63.0508 29.0119 61.1108 28.3225 59.9367 26.7214C59.3008 25.8931 59.0963 24.8173 59.0595 23.7799C61.4408 24.1448 62.8275 26.5582 65.0617 27.2954C67.0941 27.9679 69.3463 27.7372 71.307 26.909C73.4731 25.9963 75.362 24.3849 77.6931 23.9093Z" fill="#0D0D0D"/>
<path d="M6.60465 27.3195C7.82878 26.2805 9.3814 25.7555 10.8788 25.2304C10.1095 26.8369 7.73613 26.6216 7.10067 28.3372C6.59061 29.878 7.21391 31.5668 6.6477 33.1151C6.50451 32.9089 6.3632 32.7056 6.21626 32.5022C6.2434 30.7672 6.51855 29.0498 6.60465 27.3195Z" fill="#0D0D0D"/>
<path d="M9.82557 27.3002C11.7979 26.4748 14.0813 26.8255 16.0962 27.3455C17.9352 27.8518 19.7325 28.588 21.1566 29.7471C21.9631 29.3656 22.6428 28.7905 23.4993 28.486C23.9993 28.3531 24.4642 28.5524 24.867 28.7905C24.8142 29.6556 24.4568 30.5862 23.5058 30.9912C21.6122 31.789 19.4408 31.4537 17.412 31.5363C17.3407 30.4769 16.7407 29.3073 15.4656 29.0254C12.8674 28.4568 10.3432 29.5827 7.77084 29.7366C8.04771 28.7265 8.70514 27.7416 9.82557 27.3002Z" fill="#0D0D0D"/>
<path d="M78.1217 28.7904C78.407 28.4087 78.9194 28.4441 79.3422 28.3846C79.3866 29.4367 79.5206 30.5525 80.187 31.4176C81.5449 33.264 84.113 33.6699 85.4806 35.5095C84.3714 36.5176 82.8742 35.7318 81.5919 35.6525C80.9055 35.531 80.7124 36.3496 80.4297 36.7993C79.9973 37.499 79.9547 38.3391 80.2757 39.0896C80.5515 39.5523 79.9147 39.7513 79.6946 40.0486C77.3292 42.4181 75.7389 45.3959 73.7502 48.0557C72.1869 50.2133 70.3696 52.2071 68.2426 53.8304C64.5993 56.6161 60.5506 58.8969 56.2391 60.4986C52.1791 62.0298 47.8181 62.4769 43.5179 62.819C38.5584 63.1499 33.5762 63.174 28.6166 62.8233C25.156 62.5416 21.671 62.1504 18.3452 61.1207C16.9933 60.677 15.5822 60.1548 14.6201 59.0649C13.1899 57.4743 12.4191 55.4322 11.8693 53.4048C10.7671 49.0242 10.6244 44.4248 11.2499 39.965C11.5396 37.8566 12.5844 35.9704 13.584 34.124C14.0677 33.3545 13.811 32.4015 14.1094 31.583C14.286 31.1091 14.8759 31.3753 15.2482 31.34C16.139 33.2218 15.604 35.3854 16.2521 37.3198C19.7197 40.7387 24.581 42.4026 29.3561 42.9997C36.26 43.8027 43.2282 42.7463 49.9364 41.1342C59.5684 38.7449 68.8307 35.0898 77.8103 30.9325C77.8303 30.2173 77.6859 29.4143 78.1217 28.7904Z" fill="#0D0D0D"/>
<path d="M46.625 33.3054C46.6854 31.9808 47.9691 31.4148 48.9931 31.5606C50.285 31.7294 51.692 32.1101 52.6311 33.1898C52.9316 34.031 52.8271 34.9914 52.8108 35.8812C52.6875 37.1774 52.2987 38.7369 51.1318 39.2955C50.5798 39.5982 49.9861 39.2891 49.4447 39.1148C49.4447 38.7084 49.368 38.2764 49.537 37.8984C49.8547 37.126 50.7137 36.8279 50.9587 36.0032C51.1506 35.4281 50.975 34.8245 50.8811 34.2512C49.51 33.6576 47.965 34.0145 46.625 33.3054Z" fill="#0D0D0D"/>
<path d="M53.0025 33.078C52.8159 32.5557 52.6572 31.7781 53.3349 31.5383C53.5135 31.5876 53.8658 31.6814 54.0424 31.7317C53.8049 31.9048 53.5674 32.0751 53.3289 32.2462C53.3758 32.8749 53.8558 33.3952 54.4895 33.5267C56.8088 34.0838 59.2229 33.341 61.5532 33.7511C62.0642 33.7966 62.2279 34.2492 62.146 34.6921C59.9974 33.5335 57.4885 34.4571 55.1841 34.2444C54.3508 34.1921 53.2989 33.9445 53.0025 33.078Z" fill="#0D0D0D"/>
<path d="M6.21626 33.1156C6.32263 33.1516 6.53874 33.2249 6.6468 33.2622C7.21915 33.8927 8.47276 34.1922 9.32454 34.6925C8.57237 34.6434 7.76618 34.5687 7.19298 34.2774C6.56913 33.9874 6.35724 33.534 6.21626 33.1156Z" fill="#0D0D0D"/>
<path d="M70.1242 37.1063C73.2795 36.0371 75.8077 33.2629 79.2619 33.1156C79.3157 35.0228 78.4475 36.8803 77.0369 38.1147C75.0721 39.8652 72.4777 40.6407 69.9395 41.0002C70.5608 39.771 69.9285 38.404 70.1242 37.1063Z" fill="#FCFCFC"/>
<path d="M92.7867 33.1156C92.9418 33.292 93.0959 33.4711 93.2499 33.6475C92.958 35.3222 92.6025 36.9894 92.1146 38.631C90.4428 39.4771 88.8852 40.5941 86.9441 40.9496C86.4475 41.081 85.9541 40.9285 85.4791 40.8109C87.3437 40.5519 89.2406 39.9355 90.4729 38.6613C91.9734 37.1162 92.6241 35.087 92.7867 33.1156Z" fill="#0D0D0D"/>
<path d="M42.2679 34.9913C44.2024 34.4561 46.2678 34.6899 48.1583 35.2954C48.2229 36.174 48.1566 37.0791 47.6931 37.8463C45.6116 35.943 42.7385 38.0144 40.4087 36.8919C40.5279 35.9074 41.3679 35.2206 42.2679 34.9913Z" fill="#0D0D0D"/>
<path d="M54.3978 41.3281C59.0879 40.2589 63.6481 38.765 68.3852 37.8461C68.3559 39.6588 67.3729 41.4592 65.6141 42.4268C62.5274 44.1674 58.7323 44.3523 55.4628 45.7307C55.0505 44.2742 54.8404 42.7777 54.3978 41.3281Z" fill="#FCFCFC"/>
<path d="M13.9913 45.0266C14.0319 42.9646 15.3385 41.0827 16.7368 39.4235C17.5839 42.0343 16.7735 44.7676 15.9251 47.3081C14.8227 46.9042 13.918 46.0667 13.9913 45.0266Z" fill="#FCFCFC"/>
<path d="M72.3796 43.7153C73.5331 43.0578 74.834 42.6714 76.156 42.5772C73.924 44.3955 73.389 47.8999 70.4341 48.8848C70.0954 48.1373 69.8106 47.314 70.0002 46.484C70.2723 45.2322 71.307 44.3206 72.3796 43.7153Z" fill="#FCFCFC"/>
<path d="M19.2364 48.2407C18.9786 46.409 17.8327 44.0182 19.6912 42.5772C20.6676 43.4656 21.978 43.9057 23.2975 44.1957C23.4427 45.3293 22.5312 46.2196 22.1668 47.2388C21.9567 47.8098 22.2734 48.3725 22.521 48.8848C21.4603 48.5481 20.4027 48.0001 19.2364 48.2407Z" fill="#FCFCFC"/>
<path d="M44.4353 44.4526C47.4127 43.7475 50.3953 43.0542 53.4176 42.5772C53.8466 44.101 53.9924 45.692 54.3972 47.2204C52.0774 47.483 49.8784 48.3762 47.5741 48.7205C46.233 48.935 44.8702 48.9141 43.5222 48.8023C43.536 47.4484 43.498 46.0973 43.5334 44.7452C43.7854 44.5435 44.1384 44.5498 44.4353 44.4526Z" fill="#FCFCFC"/>
<path d="M23.3125 47.8803C24.4262 46.8777 23.7663 45.2261 24.7446 44.154C27.173 45.4084 30.087 44.6734 32.6378 45.5454C31.7431 46.4842 32.4597 47.7738 32.3164 48.8848C29.2978 48.8783 26.1589 48.9653 23.3125 47.8803Z" fill="#FCFCFC"/>
<path d="M34.7861 44.8487C36.6896 45.2012 38.5116 44.1591 40.4029 44.154C40.4128 45.7278 40.4052 47.3047 40.409 48.8785C38.353 48.8837 36.2992 48.8908 34.2439 48.8755C33.9739 47.4328 34.8586 46.2709 34.7861 44.8487Z" fill="#FCFCFC"/>
<path d="M57.5605 49.7667C60.8632 48.9084 63.9715 47.3928 66.9794 45.7309C66.705 47.5243 67.0906 49.4686 68.384 50.7221C65.3408 52.6055 62.7144 55.207 59.494 56.7693C59.4545 54.7192 57.731 53.3236 57.5415 51.3246C57.4674 50.805 57.5226 50.2837 57.5605 49.7667Z" fill="#FCFCFC"/>
<path d="M45.1558 53.3536C48.703 52.9291 52.0509 51.6783 55.3621 50.4613C55.2727 51.587 55.2477 52.7709 55.7974 53.806C56.433 55.0551 57.319 56.2247 57.504 57.6378C54.3939 58.3609 51.4081 59.604 48.1943 59.8831C47.2128 59.9931 46.2241 59.8611 45.2675 59.6582C45.6609 57.5643 44.808 55.4602 45.1558 53.3536Z" fill="#FCFCFC"/>
<path d="M14.1106 53.3056C13.9497 52.91 13.9729 52.4607 14.0302 52.0387C14.407 53.1423 15.0593 54.0578 15.4348 55.1622C15.6338 55.6821 15.5309 56.2666 15.3524 56.7695C15.1418 55.5085 14.5277 54.4585 14.1106 53.3056Z" fill="#FCFCFC"/>
<path d="M18.4078 53.616C20.1381 55.2812 21.0463 57.63 21.7585 59.9237C20.4125 59.5598 18.9957 59.3954 17.7377 58.7488C17.361 58.5814 17.2434 58.1503 17.0962 57.7964C17.3018 57.9859 17.5025 58.1784 17.7033 58.3769C18.1344 58.2506 18.6382 58.2014 18.9441 57.8115C19.4384 56.3288 17.5006 55.0326 18.4078 53.616Z" fill="#FCFCFC"/>
<path d="M34.1925 54.7519C37.1931 55.0197 40.2053 54.5078 43.0725 53.616C43.2233 56.0502 42.5126 58.635 43.5173 60.9461C40.8638 61.8507 38.0324 61.3566 35.2939 61.4373C35.0221 59.1921 34.4893 56.9922 34.1925 54.7519Z" fill="#FCFCFC"/>
<path d="M21.7579 55.197C22.8951 55.1244 23.8378 55.9275 24.9921 55.7612C24.9335 57.2859 26.1244 58.4772 26.4205 59.9232C25.3435 59.7793 24.2006 59.7351 23.2636 59.1672C23.3864 58.8106 23.6028 58.4232 23.4051 58.0508C23.0236 57.0214 22.1142 56.2407 21.7579 55.197Z" fill="#FCFCFC"/>
<path d="M27.9762 55.5073C29.4171 55.1258 31.0917 54.9047 32.3533 55.9713C33.7917 57.2903 33.9785 59.5439 34.193 61.4806C32.7538 61.548 31.2961 61.4588 29.9214 60.9293C29.5352 59.0078 28.4947 57.3747 27.9762 55.5073Z" fill="#FCFCFC"/>
<path d="M63.762 60.985C66.2261 59.8089 68.7616 58.6089 71.4919 58.3461C67.0854 59.9899 63.0085 62.4101 58.7738 64.4564C53.3009 67.1174 47.3892 69.3474 41.2641 69.0717C39.0054 68.7943 36.7545 69.2812 34.4914 69.2574C30.1439 69.2041 25.7445 69.7655 21.4375 68.8815C19.6547 68.4791 17.796 67.7661 16.6345 66.2187C16.0334 65.4754 15.7205 64.5418 15.5416 63.6009C17.1077 66.3437 20.0953 67.6558 22.9578 68.333C26.5156 69.1232 30.1915 69.3851 33.8189 69.0534C38.6828 68.8365 43.6102 68.8815 48.3736 67.6843C53.8103 66.306 58.7465 63.4787 63.762 60.985Z" fill="#0D0D0D"/>
<path d="M68.5367 61.4607C70.9791 60.2154 73.3674 58.5631 76.1552 58.3461C73.1272 60.4558 69.8275 62.1198 66.5096 63.6848C53.4477 69.6809 39.1229 72.5209 24.8581 72.5371C22.0189 72.5533 19.1249 72.4308 16.3953 71.5457C14.2298 70.8442 12.2061 69.4359 11.0633 67.3712C11.0294 66.4996 10.6934 65.5334 11.025 64.7086C11.1364 64.642 11.3593 64.5105 11.4707 64.443C11.4933 65.5037 11.4776 66.5662 11.482 67.6269C12.7118 68.911 14.2646 69.8168 15.9009 70.4255C18.412 71.3818 21.0858 71.7645 23.7414 71.9653C27.9149 72.2255 32.0997 71.9581 36.2532 71.5043C47.496 70.2824 58.4542 66.7112 68.5367 61.4607Z" fill="#0D0D0D"/>
<path d="M27.9762 64.9602C31.0889 65.0259 34.2033 64.8392 37.3108 65.1002C39.3652 65.1108 41.579 63.6682 43.5181 65.9148C40.1307 65.552 36.7468 66.2139 33.3586 66.2309C31.5624 66.1121 29.7155 66.2245 27.9762 64.9602Z" fill="#0D0D0D"/>
</svg>
